
<?xml version="1.0" standalone="no"?>
<!DOCTYPE svg PUBLIC "-//W3C//DTD SVG 20010904//EN"
 "http://www.w3.org/TR/2001/REC-SVG-20010904/DTD/svg10.dtd">
<svg version="1.0" xmlns="http://www.w3.org/2000/svg"
 width="544.000000pt" height="473.000000pt" viewBox="0 0 544.000000 473.000000"
 preserveAspectRatio="xMidYMid meet">

<g transform="translate(0.000000,473.000000) scale(0.100000,-0.100000)"
fill="#000000" stroke="none">
<path d="M3168 3414 c-2 -58 -1 -108 1 -110 2 -2 71 -4 153 -4 l148 0 0 110 0
110 -149 0 -150 0 -3 -106z"/>
<path d="M518 3078 c-177 -17 -320 -115 -397 -273 -39 -78 -51 -132 -51 -230
0 -150 45 -261 144 -359 108 -106 234 -152 396 -143 100 5 180 28 253 74 l37
23 0 125 c0 146 -5 151 -77 84 -92 -85 -223 -118 -337 -85 -84 25 -168 108
-191 190 -42 145 22 293 154 358 38 19 62 23 141 23 85 0 101 -3 150 -29 30
-16 71 -42 91 -57 65 -51 69 -45 69 90 l0 119 -42 25 c-94 54 -216 78 -340 65z"/>
<path d="M1330 3066 c-325 -91 -468 -487 -279 -774 89 -136 252 -222 421 -222
294 0 518 218 518 504 0 235 -149 432 -371 491 -66 18 -227 18 -289 1z m256
-213 c74 -25 157 -113 180 -188 42 -147 -26 -294 -165 -359 -69 -32 -189 -29
-256 6 -113 58 -173 166 -163 293 9 104 65 187 160 234 50 25 74 31 128 31 36
0 89 -8 116 -17z"/>
<path d="M4910 3062 c-242 -63 -401 -322 -356 -579 26 -151 132 -298 257 -360
125 -62 314 -70 437 -20 59 24 62 25 62 6 0 -16 7 -19 55 -19 l55 0 0 280 0
280 -196 -2 -196 -3 -1 -72 -2 -72 90 -3 90 -3 3 -87 3 -87 -33 -17 c-49 -25
-164 -30 -226 -10 -64 22 -133 82 -163 143 -18 39 -23 65 -23 133 0 73 4 92
27 137 58 111 157 169 277 160 62 -4 133 -30 171 -63 14 -13 25 -6 94 58 l78
72 -39 34 c-112 99 -300 137 -464 94z"/>
<path d="M2130 2560 l0 -470 93 0 c50 0 135 -3 187 -6 199 -13 347 49 435 181
74 112 78 135 83 468 l4 297 -116 0 -116 0 0 -290 c1 -326 -4 -351 -71 -403
-67 -51 -192 -61 -248 -20 l-26 20 -3 347 -2 346 -110 0 -110 0 0 -470z"/>
<path d="M3160 2560 l0 -470 110 0 110 0 0 470 0 470 -110 0 -110 0 0 -470z"/>
<path d="M3581 2560 l-2 -470 110 0 111 0 2 286 3 287 124 -149 c69 -82 179
-211 245 -286 l120 -138 73 0 73 0 0 470 0 470 -107 0 -108 0 1 -255 c1 -141
-2 -254 -7 -253 -4 2 -105 117 -224 256 l-216 252 -99 0 -98 0 -1 -470z"/>
<path d="M1915 1755 c-29 -29 -33 -75 -7 -97 9 -9 39 -22 66 -30 52 -14 61
-24 47 -47 -7 -11 -17 -11 -60 -1 -29 7 -54 11 -56 9 -2 -2 -6 -16 -10 -31 -6
-25 -4 -28 36 -38 58 -16 109 -6 137 25 45 53 20 114 -56 135 -42 11 -62 37
-36 47 8 3 33 3 54 -1 37 -6 40 -5 40 18 0 27 -21 36 -88 36 -32 0 -49 -6 -67
-25z"/>
<path d="M2416 1738 c-9 -12 -16 -39 -16 -60 0 -35 2 -38 29 -38 28 0 30 3 33
43 3 38 6 42 31 45 47 6 33 32 -17 32 -35 0 -48 -5 -60 -22z"/>
<path d="M2205 1603 c4 -38 11 -72 16 -77 6 -6 9 -4 9 5 1 11 3 11 13 -3 8
-10 18 -13 26 -9 9 6 7 10 -8 14 -19 5 -21 13 -21 71 0 60 -2 66 -21 66 -19 0
-20 -4 -14 -67z m22 -50 c-3 -10 -5 -4 -5 12 0 17 2 24 5 18 2 -7 2 -21 0 -30z"/>
<path d="M2304 1636 c6 -32 5 -35 -21 -39 l-28 -4 28 -2 c24 -1 27 -5 27 -36
0 -28 4 -35 19 -35 15 0 20 9 23 41 2 22 1 42 -2 44 -4 2 -5 18 -2 35 4 27 2
30 -23 30 -26 0 -27 -2 -21 -34z"/>
<path d="M2509 1633 c-7 -71 1 -111 22 -116 16 -4 19 0 19 29 0 22 6 37 16 41
13 5 13 7 2 14 -7 5 -12 21 -10 39 3 26 0 30 -21 30 -21 0 -25 -5 -28 -37z"/>
<path d="M2673 1663 c9 -2 23 -2 30 0 6 3 -1 5 -18 5 -16 0 -22 -2 -12 -5z"/>
<path d="M3293 1610 c-15 -33 -30 -60 -34 -60 -4 0 -19 25 -33 55 -14 30 -29
55 -35 55 -9 0 48 -132 63 -147 3 -3 23 31 45 76 23 45 36 81 31 81 -6 0 -23
-27 -37 -60z"/>
<path d="M3416 1598 c36 -71 36 -72 20 -106 -22 -45 -14 -52 12 -10 41 69 95
179 89 184 -3 3 -20 -22 -37 -55 -18 -34 -36 -61 -39 -61 -3 0 -18 27 -33 60
-14 33 -31 60 -37 60 -6 0 5 -32 25 -72z"/>
<path d="M2620 1606 c0 -31 6 -34 13 -6 3 11 1 23 -4 26 -5 3 -9 -6 -9 -20z"/>
<path d="M2132 1601 c-10 -6 -8 -10 9 -14 13 -4 25 -4 28 -2 2 3 -2 5 -10 5
-11 0 -11 2 1 10 13 9 13 10 0 10 -8 0 -21 -4 -28 -9z"/>
<path d="M2404 1594 c3 -9 6 -29 6 -45 0 -22 5 -29 20 -29 15 0 20 7 20 26 0
19 -4 25 -15 20 -9 -3 -15 0 -15 8 0 7 10 12 21 12 12 -1 24 5 26 12 3 8 -7
12 -32 12 -30 0 -36 -3 -31 -16z"/>
<path d="M2673 1593 c15 -2 39 -2 55 0 15 2 2 4 -28 4 -30 0 -43 -2 -27 -4z"/>
<path d="M2629 1557 c6 -8 9 -17 6 -21 -3 -3 0 -2 6 3 12 10 4 31 -13 31 -7 0
-7 -4 1 -13z"/>
<path d="M2131 1528 c-1 -20 14 -24 25 -6 4 6 3 8 -4 4 -5 -3 -13 0 -15 6 -3
8 -6 6 -6 -4z"/>
<path d="M2720 1536 c0 -2 7 -7 16 -10 8 -3 12 -2 9 4 -6 10 -25 14 -25 6z"/>
</g>
</svg>
