<svg xmlns="http://www.w3.org/2000/svg" xmlns:xlink="http://www.w3.org/1999/xlink" width="577.9952697753906" height="422.406494140625" viewBox="0 0 577.9952697753906 422.406494140625" fill="none">
<path d="M217.272 169.894C226.022 143.926 233.078 130.87 283.038 130.87L320.039 130.87C330.237 130.87 338.586 122.523 338.586 112.324L338.586 112.321C338.586 102.121 330.237 93.7741 320.039 93.7741L307.744 93.7741C300.705 93.7741 294.943 88.0129 294.943 80.9725C294.943 73.9321 300.705 68.1719 307.744 68.1719L384.004 68.1719C416.892 68.1719 418.341 52.7905 431.36 52.7905L493.182 52.7905C498.575 52.7905 502.993 57.2065 502.993 62.6007C502.993 67.9969 498.579 72.4115 493.182 72.4115L483.76 72.4115C475.944 72.4115 469.547 78.8084 469.547 86.6252C469.547 94.4432 475.944 100.841 483.76 100.841L537.206 100.841C557.286 100.841 573.717 117.271 573.717 137.352C573.717 157.434 557.286 173.864 537.206 173.864L494.942 173.864C475.626 173.864 459.823 189.666 459.823 208.981C459.823 228.296 475.626 244.1 494.942 244.1C540.623 244.102 577.995 281.476 577.995 327.155L577.995 327.157C577.995 372.837 540.623 410.213 494.942 410.213L51.723 410.213C23.5118 410.213 0.430878 387.13 0.430878 358.92C0.430878 330.71 23.5118 307.629 51.723 307.629L104.139 307.629C118.926 307.629 131.024 295.531 131.024 280.742C131.024 265.956 118.926 253.858 104.139 253.858L100.941 253.858C85.5677 253.858 72.9893 241.279 72.9893 225.907C72.9893 210.534 85.5677 197.956 100.941 197.956L163.078 197.956C163.078 197.956 208.521 195.861 217.272 169.894ZM520.711 52.7905C526.13 52.7905 530.522 57.183 530.522 62.6007C530.522 68.019 526.13 72.4115 520.711 72.4115C515.293 72.4115 510.9 68.019 510.9 62.6007C510.9 57.183 515.293 52.7905 520.711 52.7905Z" fill-rule="evenodd"  fill="#E0E8F5" >
</path>
<ellipse cx="286.08489990234375" cy="412.2447261810303" rx="274.60772705078125" ry="10.161718368530273"   fill="#929497" >
</ellipse>
<path d="M295.969 229.054L540.675 234.272L549.092 408.595L299.565 416.717L295.969 229.054L295.969 229.054Z" fill-rule="evenodd"  fill="#9DB2D9" >
</path>
<path d="M309.622 236.71L312.809 402.93L541.166 395.496L533.731 241.488L309.622 236.71L309.622 236.71Z" fill-rule="evenodd"  fill="#C4D1EB" >
</path>
<path d="M299.355 405.769L277.208 405.984L295.969 229.054L299.355 405.769L299.355 405.769Z" fill-rule="evenodd"  fill="#8FA3CF" >
</path>
<path d="M354.523 248.864C353.138 248.864 352.012 249.989 352.012 251.372C352.012 252.759 353.138 253.882 354.523 253.882C357.849 253.882 360.696 251.376 362.604 247.327C364.244 243.848 365.26 239.102 365.26 233.915C365.26 228.729 364.244 223.983 362.604 220.504C360.696 216.455 357.849 213.949 354.523 213.949C350.804 213.949 348.296 216.544 346.644 220.053C345.2 223.117 344.407 226.982 344.04 230.077L349.068 230.185C349.393 227.634 350.042 224.585 351.171 222.189C352.045 220.336 353.16 218.967 354.523 218.967C355.737 218.967 357.008 220.372 358.076 222.639C359.413 225.475 360.242 229.459 360.242 233.915C360.242 238.37 359.413 242.356 358.076 245.192C357.008 247.459 355.737 248.864 354.523 248.864ZM409.628 233.974C409.628 238.429 408.798 242.414 407.46 245.253C406.393 247.52 405.12 248.923 403.908 248.923C402.521 248.923 401.398 250.048 401.398 251.433C401.398 252.82 402.521 253.943 403.908 253.943C407.233 253.943 410.08 251.437 411.99 247.388C413.63 243.909 414.646 239.163 414.646 233.974C414.646 228.79 413.63 224.042 411.99 220.562C410.08 216.513 407.233 214.009 403.908 214.009C400.19 214.009 397.681 216.605 396.027 220.112C394.423 223.515 393.624 227.902 393.32 231.128L398.34 231.235C398.612 228.516 399.277 224.964 400.554 222.249C401.428 220.396 402.545 219.026 403.908 219.026C405.12 219.026 406.393 220.431 407.46 222.699C408.798 225.536 409.628 229.52 409.628 233.974ZM449.939 223.314C450.812 221.461 451.931 220.09 453.289 220.09C454.505 220.09 455.775 221.495 456.846 223.762C458.181 226.6 459.011 230.584 459.011 235.039C459.011 239.495 458.181 243.479 456.846 246.315C455.775 248.584 454.505 249.989 453.289 249.989C451.906 249.989 450.781 251.113 450.781 252.497C450.781 253.882 451.906 255.005 453.289 255.005C456.618 255.005 459.465 252.501 461.375 248.452C463.013 244.973 464.029 240.225 464.029 235.039C464.029 229.852 463.013 225.106 461.375 221.627C459.465 217.578 456.618 215.072 453.289 215.072C449.573 215.072 447.065 217.669 445.41 221.179C443.808 224.575 443.012 228.956 442.706 232.182L447.726 232.29C447.997 229.572 448.66 226.024 449.939 223.314ZM502.674 251.052C501.29 251.052 500.165 252.175 500.165 253.562C500.165 254.947 501.29 256.07 502.674 256.07C506.004 256.07 508.848 253.566 510.756 249.515C512.398 246.036 513.412 241.29 513.412 236.103C513.412 230.917 512.398 226.17 510.756 222.691C508.848 218.641 506.004 216.136 502.674 216.136C498.956 216.136 496.45 218.734 494.796 222.241C493.196 225.635 492.397 230.009 492.091 233.234L497.111 233.34C497.387 230.625 498.048 227.087 499.323 224.378C500.197 222.525 501.314 221.154 502.674 221.154C503.891 221.154 505.16 222.558 506.229 224.826C507.565 227.663 508.396 231.649 508.396 236.103C508.396 240.557 507.565 244.544 506.229 247.38C505.16 249.649 503.891 251.052 502.674 251.052Z" fill-rule="evenodd"  fill="#8FA3CF" >
</path>
<path d="M355.682 276.276C356.457 276.281 357.077 276.925 357.083 277.689C357.134 284.68 357.199 291.678 357.247 298.669C357.254 299.433 356.623 300.044 355.848 300.042C349.308 300.026 342.747 300.007 336.226 299.981C335.452 299.979 334.843 299.334 334.843 298.57L334.843 277.45C334.843 276.683 335.436 276.069 336.206 276.079C342.692 276.148 349.18 276.215 355.682 276.276ZM366.093 277.768C366.176 284.747 366.249 291.729 366.314 298.7C366.322 299.464 366.943 300.088 367.713 300.09C374.256 300.117 380.797 300.145 387.355 300.161C388.128 300.164 388.75 299.553 388.738 298.799C388.62 291.867 388.485 284.935 388.369 277.997C388.357 277.251 387.704 276.61 386.95 276.604C380.446 276.544 373.941 276.477 367.474 276.405C366.702 276.397 366.085 277.012 366.093 277.768ZM418.842 300.281C419.596 300.283 420.229 299.673 420.206 298.929C420.006 292.057 419.815 285.186 419.616 278.315C419.596 277.571 418.954 276.941 418.198 276.932C411.714 276.862 405.209 276.805 398.722 276.734C397.969 276.726 397.343 277.33 397.359 278.086C397.509 284.996 397.651 291.918 397.785 298.827C397.797 299.584 398.446 300.208 399.22 300.21C405.741 300.236 412.301 300.255 418.842 300.281ZM429.973 277.06C436.437 277.133 442.945 277.19 449.447 277.261C450.219 277.269 450.872 277.888 450.901 278.634C451.166 285.444 451.43 292.246 451.695 299.056C451.724 299.793 451.103 300.392 450.331 300.391C443.792 300.364 437.231 300.346 430.709 300.32C429.953 300.318 429.296 299.703 429.272 298.957C429.056 292.108 428.862 285.255 428.647 278.405C428.623 277.659 429.219 277.054 429.973 277.06ZM482.168 278.952C482.501 285.691 482.85 292.435 483.182 299.186C483.219 299.912 482.61 300.512 481.836 300.51C475.279 300.484 468.736 300.465 462.198 300.439C461.423 300.437 460.771 299.823 460.742 299.087C460.458 292.297 460.192 285.503 459.895 278.723C459.862 277.977 460.466 277.383 461.221 277.389C467.705 277.452 474.211 277.519 480.696 277.59C481.469 277.596 482.132 278.216 482.168 278.952ZM511.962 277.916C512.737 277.924 513.41 278.524 513.454 279.25C513.87 285.931 514.272 292.613 514.669 299.296C514.714 300.032 514.099 300.622 513.327 300.62C506.786 300.593 500.242 300.575 493.703 300.559C492.93 300.557 492.268 299.953 492.229 299.217C491.88 292.486 491.544 285.762 491.179 279.031C491.138 278.305 491.714 277.711 492.488 277.717C498.973 277.78 505.46 277.847 511.962 277.916ZM482.483 313.804C483.255 313.804 483.921 314.4 483.957 315.136C484.287 321.876 484.62 328.621 484.95 335.361C484.987 336.098 484.38 336.699 483.587 336.705C476.974 336.747 470.34 336.8 463.726 336.843C462.952 336.849 462.283 336.247 462.253 335.511C461.971 328.731 461.687 321.937 461.403 315.147C461.374 314.411 461.995 313.814 462.768 313.814C469.327 313.814 475.904 313.804 482.483 313.804ZM495.603 336.623C494.828 336.63 494.165 336.036 494.127 335.302C493.778 328.579 493.407 321.848 493.058 315.124C493.02 314.39 493.628 313.804 494.402 313.804L514.117 313.804C514.892 313.804 515.567 314.38 515.61 315.106C516.009 321.788 516.429 328.471 516.826 335.152C516.869 335.878 516.255 336.482 515.464 336.486C508.848 336.52 502.216 336.581 495.603 336.623ZM451.712 336.922C445.082 336.977 438.466 337.017 431.85 337.062C431.096 337.068 430.437 336.464 430.413 335.719C430.198 328.868 429.985 322.018 429.77 315.167C429.746 314.421 430.358 313.814 431.133 313.814L450.848 313.814C451.62 313.814 452.274 314.411 452.304 315.157C452.567 321.957 452.831 328.769 453.094 335.57C453.123 336.315 452.506 336.916 451.712 336.922ZM389.014 315.195C389.127 322.125 389.266 329.057 389.381 335.987C389.393 336.743 388.754 337.356 387.98 337.359C381.35 337.402 374.716 337.455 368.119 337.5C367.328 337.506 366.689 336.891 366.683 336.137C366.618 329.166 366.527 322.186 366.462 315.205C366.454 314.451 367.089 313.833 367.861 313.833C374.42 313.833 380.997 313.822 387.574 313.822C388.349 313.822 389.002 314.441 389.014 315.195ZM419.211 313.822C419.986 313.822 420.63 314.431 420.649 315.177C420.831 322.046 421.036 328.917 421.218 335.78C421.239 336.524 420.61 337.137 419.856 337.141C413.224 337.185 406.608 337.228 399.995 337.28C399.202 337.287 398.553 336.674 398.539 335.928C398.407 329.019 398.247 322.107 398.115 315.185C398.101 314.441 398.722 313.822 399.496 313.822L419.211 313.822ZM336.245 337.729C335.452 337.733 334.843 337.102 334.843 336.336L334.843 315.226C334.843 314.461 335.452 313.833 336.226 313.833L355.942 313.833C356.716 313.833 357.353 314.461 357.359 315.215C357.409 322.217 357.458 329.207 357.507 336.198C357.511 336.952 356.88 337.585 356.108 337.589C349.474 337.631 342.84 337.684 336.245 337.729ZM519 371.01C519.047 371.736 518.446 372.33 517.655 372.342C510.948 372.457 504.244 372.575 497.553 372.688C496.762 372.702 496.065 372.133 496.024 371.397C495.659 364.676 495.305 357.945 494.956 351.211C494.919 350.488 495.548 349.887 496.32 349.879C502.97 349.811 509.622 349.731 516.275 349.66C517.065 349.652 517.741 350.228 517.783 350.952C518.183 357.636 518.586 364.327 519 371.01ZM462.934 351.57C462.903 350.832 463.524 350.224 464.298 350.216C470.948 350.147 477.601 350.078 484.251 350.009C485.043 350.001 485.708 350.585 485.745 351.311C486.077 358.073 486.39 364.814 486.739 371.557C486.777 372.293 486.185 372.885 485.394 372.897C478.687 373.013 471.98 373.131 465.292 373.246C464.501 373.26 463.812 372.681 463.781 371.943C463.499 365.152 463.215 358.36 462.934 351.57ZM430.912 351.927C430.89 351.183 431.522 350.573 432.292 350.564C438.926 350.496 445.578 350.417 452.229 350.346C453.021 350.338 453.674 350.933 453.703 351.68C453.966 358.48 454.23 365.292 454.493 372.103C454.522 372.838 453.922 373.443 453.131 373.455C446.424 373.57 439.717 373.688 433.031 373.804C432.256 373.816 431.579 373.236 431.554 372.49C431.34 365.639 431.129 358.778 430.912 351.927ZM421.681 352.026C421.863 358.897 422.052 365.769 422.252 372.64C422.273 373.386 421.66 373.998 420.888 374.012C414.183 374.128 407.476 374.246 400.787 374.359C399.995 374.373 399.33 373.783 399.313 373.027C399.163 366.117 399.021 359.195 398.89 352.286C398.875 351.53 399.498 350.911 400.291 350.903C406.92 350.832 413.575 350.765 420.225 350.694C420.999 350.686 421.66 351.282 421.681 352.026ZM366.848 352.645C366.841 351.878 367.474 351.25 368.267 351.242C374.899 351.171 381.553 351.104 388.221 351.033C388.995 351.025 389.646 351.629 389.659 352.385C389.774 359.315 389.894 366.257 390.027 373.187C390.04 373.942 389.417 374.556 388.627 374.568C381.919 374.684 375.213 374.801 368.524 374.917C367.733 374.931 367.077 374.328 367.069 373.574C367.004 366.594 366.915 359.613 366.848 352.645ZM334.843 374.112L334.843 352.991C334.843 352.225 335.452 351.597 336.245 351.588C342.876 351.52 349.529 351.44 356.199 351.369C356.972 351.361 357.63 351.976 357.637 352.742C357.685 359.731 357.734 366.732 357.783 373.734C357.789 374.489 357.154 375.113 356.363 375.125C349.656 375.241 342.952 375.358 336.263 375.474C335.472 375.486 334.843 374.878 334.843 374.112Z" fill-rule="evenodd"  fill="#FFFFFF" >
</path>
<path d="M484.024 286.728C485.907 285.142 496.771 276.261 494.653 273.741C493.078 271.864 482.923 280.831 481.219 282.265L468.258 293.169L459.542 280.548C459.112 279.173 457.648 278.405 456.27 278.835C454.893 279.266 454.124 280.73 454.554 282.109L464.446 298.466C464.878 299.843 466.344 300.61 467.721 300.18C468.104 300.062 468.438 299.861 468.714 299.606L468.714 299.606L484.024 286.728Z" fill-rule="evenodd"  fill="#BBBDBF" >
</path>
<path d="M459.483 279.723C459.053 278.35 457.587 277.579 456.211 278.009C454.834 278.441 454.068 279.907 454.498 281.283L464.388 297.641C464.819 299.018 466.285 299.784 467.664 299.357C468.045 299.237 468.379 299.038 468.655 298.781L468.655 298.781L483.965 285.904C485.848 284.319 496.713 275.436 494.593 272.916C493.02 271.039 482.866 280.007 481.161 281.44L468.199 292.344L459.483 279.723Z" fill-rule="evenodd"  fill="#A1775A" >
</path>
<path d="M354.299 102.666C356.562 96.5233 358.865 90.375 365.779 86.4507C371.369 83.2879 377.504 83.3285 382.95 85.9642C398.369 93.4384 391.438 107.04 401.451 121.376C405.737 127.49 412.143 130.622 415.353 137.049C421.166 148.635 416.109 167.504 400.536 178.123C362.395 204.143 341.457 157.729 341.346 147.727C341.259 140.292 352.844 106.622 354.299 102.666L354.299 102.666Z" fill-rule="evenodd"  fill="#20386F" >
</path>
<path d="M309.78 233.275C309.496 233.088 307.692 235.416 305.24 237.407C304.61 237.92 303.99 238.411 303.412 238.862C301.897 240.059 300.729 239.475 302.112 237.95C302.603 237.417 303.44 236.559 304.119 236.032C304.855 235.44 305.346 234.672 305.891 234.098C306.97 232.95 307.775 232.111 307.706 232.101C307.613 232.087 307.669 231.695 306.984 232.223C306.155 232.845 304.703 234.57 303.414 235.402C302.686 235.876 301.228 236.94 301.228 236.94C301.228 236.94 298.666 238.421 298.548 238.283C297.901 237.618 299.434 236.024 300.502 235.534C301.017 234.836 302.587 233.766 302.587 233.766C302.587 233.766 305.267 230.846 304.865 230.453C304.533 230.12 296.768 235.84 296.163 235.132C295.671 234.536 297.929 232.703 297.929 232.703C297.929 232.703 299.383 231.71 299.837 231.333C300.37 230.898 301.879 229.467 301.879 229.467C301.879 229.467 306.881 224.277 306.463 223.928C306.054 223.582 304.646 223.15 304.227 223.365C303.803 223.58 303.235 224.386 302.822 224.579C302.398 224.796 301.664 224.703 301.362 224.208C301.062 223.691 302.704 221.878 302.704 221.878C302.704 221.878 304.038 220.417 305.356 220.013L305.356 220.013C309.906 218.588 309.969 219.421 310.546 219.206C311.225 218.983 317.168 211.283 317.168 211.283C317.168 211.283 334.799 188.739 335.707 187.493L342.832 158.59L358.036 158.206C358.036 158.206 349.452 189.422 348.722 190.978C347.994 192.51 320.627 220.157 318.291 222.684C318.291 222.684 316.612 226.726 315.479 229.23C314.338 231.734 312.16 233.579 311.726 234.24C311.662 234.325 310.117 236.434 307.521 238.474C305.291 240.264 306.595 237.551 306.595 237.551C306.595 237.551 310.143 233.498 309.78 233.275Z" fill-rule="evenodd"  fill="#F9AF79" >
</path>
<path d="M389.808 179.085C390.907 178.166 405.901 165.144 412.585 159.339C412.585 159.339 405.915 154.331 401.781 161.629C397.653 168.919 389.808 179.085 389.808 179.085L389.808 179.085Z" fill-rule="evenodd"  fill="#233761" >
</path>
<path d="M366.075 180.039C366.075 180.039 367.705 185.728 375.677 195.661C384.896 195.528 366.075 180.039 366.075 180.039L366.075 180.039Z" fill-rule="evenodd"  fill="#233761" >
</path>
<path d="M334.442 269.612C329.114 296.98 324.698 325.031 327.364 331.851L327.364 331.851C329.905 338.339 342.905 351.708 356.305 364.327C372.305 379.397 388.876 393.413 388.876 393.413C388.876 393.413 396.451 395.725 393.148 384.582C393.148 384.582 374.882 351.019 367.036 341.113C364.798 338.28 362.486 335.695 360.313 333.449C354.887 327.82 350.394 324.305 350.394 324.305C350.394 324.305 351.42 322.652 353.089 319.798C361.246 305.832 384.647 263.079 377.417 244.102C368.719 221.236 347.092 210.938 347.092 210.938C347.092 210.938 340.227 239.869 334.442 269.612Z" fill-rule="evenodd"  fill="#223F81" >
</path>
<path d="M334.442 269.612C338.42 287.93 345.322 313.843 353.089 319.798C361.246 305.832 384.646 263.079 377.416 244.102C368.719 221.236 347.091 210.938 347.091 210.938C347.091 210.938 340.227 239.869 334.442 269.612L334.442 269.612Z" fill-rule="evenodd"  fill="#20386F" >
</path>
<path d="M356.305 364.327C372.305 379.397 388.876 393.413 388.876 393.413C388.876 393.413 396.451 395.724 393.148 384.582C393.148 384.582 374.882 351.019 367.036 341.112C364.797 338.28 362.486 335.695 360.313 333.449C360.568 342.017 360.325 356.552 356.305 364.327L356.305 364.327Z" fill-rule="evenodd"  fill="#20386F" >
</path>
<path d="M383.921 329.42L383.913 329.434C383.795 329.862 383.893 330.294 384.05 330.713C385.498 334.28 386.585 337.935 387.37 341.629C395.116 377.893 373.905 417.954 373.905 417.954L370.28 415.817C370.28 415.817 368.871 367.49 365.114 345.674C364.473 341.972 363.768 339.028 362.991 337.224C360.722 331.946 359.129 323.65 358.014 313.894C355.913 295.453 355.538 271.823 355.658 253.639C355.305 253.602 352.546 222.403 352.546 222.403L352.546 222.403L354.056 216.832C364.694 221.436 395.989 214.703 395.989 214.703C395.989 214.703 405.311 225.751 400.512 248.162C398.17 259.109 389.88 305.842 386.49 319.532C385.257 324.495 384.302 328.011 383.921 329.42Z" fill-rule="evenodd"  fill="#223F81" >
</path>
<path d="M363.488 135.597C362.308 135.692 361.594 135.758 361.594 135.758L361.588 135.772L361.566 135.804C360.708 135.875 359.916 135.949 359.195 136.03C359.195 136.03 359.137 136.037 359.025 136.045C357.683 136.199 356.574 136.366 355.672 136.529L355.487 136.564C352.888 137.041 352.009 137.491 352.009 137.491L352.009 137.535C352.134 142.334 344.397 150.727 344.93 161.575C344.954 161.989 348.898 190.426 348.874 190.846C348.557 198.949 344.588 221.759 344.588 221.759C340.967 228.812 398.235 235.053 400.562 228.32L400.562 228.32C404.885 221.771 390.042 195.023 390.571 192.496C391.607 187.527 394.052 182.022 396.442 177.074C398.843 172.126 401.193 167.728 402.03 164.975C401.26 163.905 400.506 162.891 399.804 161.944C398.742 160.483 397.817 159.138 397.221 157.883C396.56 156.519 396.282 155.24 396.596 154.014C396.84 153.083 397.168 152.151 397.568 151.239C397.752 150.815 397.949 150.388 398.162 149.971C400.372 145.544 403.675 141.939 403.675 141.939C398.448 138.593 390.21 136.888 390.137 137.132C389.521 136.931 388.985 136.786 388.545 136.677C388.246 136.595 387.935 136.521 387.627 136.455C386.593 136.206 385.549 135.994 384.647 135.825C382.775 133.946 380.527 126.963 381.204 116.687L380.296 116.803L365.069 118.86C365.069 118.86 365.118 123.623 364.862 128.079C364.651 131.566 364.252 134.871 363.488 135.597Z" fill-rule="evenodd"  fill="#F9AF79" >
</path>
<path d="M365.069 118.866C365.069 118.866 365.118 123.623 364.856 128.079C373.293 128.359 378.207 120.959 380.296 116.81L365.069 118.866L365.069 118.866Z" fill-rule="evenodd"  fill="#ED7D57" >
</path>
<path d="M362 122.919C362 122.919 381.893 124.468 382.672 112.061C383.442 99.6548 386.532 91.4983 373.865 89.9868C361.193 88.4743 358.425 93.0563 357.162 97.1306C355.891 101.213 356.838 122.199 362 122.919L362 122.919Z" fill-rule="evenodd"  fill="#F9AF79" >
</path>
<path d="M364.994 88.8939C376.241 83.5717 382.716 92.8515 382.716 92.8515C383.501 101.834 389.61 107.326 389.61 107.326C389.61 107.326 385.843 109.347 377.607 106.68C375.089 105.866 372.924 103.913 371.119 101.587C374.156 107.474 378.518 111.849 378.518 111.849C368.796 106.615 365.641 92.4601 365.325 90.9712C364.048 91.9827 361.501 94.2079 360.625 96.491C359.445 99.5898 358.602 106.065 356.716 105.725C356.716 105.725 353.213 95.5806 358.174 90.2655L358.174 90.2655C361.479 86.7284 363.754 87.6897 364.994 88.8939Z" fill-rule="evenodd"  fill="#20386F" >
</path>
<path d="M350.139 419.098L381.013 419.098C381.013 419.098 382.165 414.173 380.14 410.817C378.341 407.859 379.45 405.848 380.226 403.322C378.824 403.893 377.153 404.806 375.162 404.694C373.621 404.601 371.213 403.476 369.781 402.647C368.453 404.159 363.548 411.044 361.772 412.322C359.753 413.767 350.753 413.254 350.139 419.098L350.139 419.098Z" fill-rule="evenodd"  fill="#0E2952" >
</path>
<path d="M396.025 418.372L407.646 389.762C407.646 389.762 403.518 386.84 399.652 387.465C396.232 388.008 394.924 386.731 393.148 384.582C393.154 386.094 392.955 387.966 392.097 389.762C391.437 391.157 390.182 392.406 388.876 393.413C389.776 395.218 393.61 402.91 394.123 405.039C394.711 407.456 390.851 415.596 396.025 418.372L396.025 418.372Z" fill-rule="evenodd"  fill="#0E2952" >
</path>
<path d="M344.588 221.759C344.588 221.759 348.557 198.949 348.874 190.852L348.874 190.852C348.882 190.617 347.661 181.675 346.582 173.74C344.19 173.477 341.297 172.912 338.795 171.743C338.933 168.279 341.24 138.649 353.691 136.977C354.283 136.815 354.901 136.684 355.487 136.564C355.546 136.558 355.605 136.544 355.672 136.529C357.199 136.243 358.557 136.098 359.025 136.052C359.137 136.037 359.195 136.03 359.195 136.03C359.195 136.03 355.481 146.579 355.556 147.812C355.625 149.052 367.555 149.465 375.397 149.565C383.179 149.669 387.562 136.655 387.627 136.455C387.935 136.521 388.245 136.595 388.545 136.676C388.985 136.786 399.386 138.372 403.675 141.946C403.675 141.946 400.372 145.544 398.162 149.971C397.949 150.388 397.752 150.815 397.568 151.247C397.168 152.151 396.84 153.083 396.596 154.014C396.282 155.24 396.56 156.519 397.221 157.883C397.817 159.138 398.741 160.483 399.804 161.944C400.506 162.891 401.26 163.905 402.03 164.975C401.744 165.922 401.274 167.068 400.696 168.353L400.696 168.36C399.571 170.819 398.02 173.829 396.442 177.074C394.052 182.022 391.607 187.535 390.571 192.503C390.042 195.022 404.885 221.771 400.562 228.32C399.873 230.311 394.38 231.171 387.092 231.205C369.7 231.292 342.039 226.726 344.588 221.759Z" fill-rule="evenodd"  fill="#6D96CE" >
</path>
<path d="M380.296 191.556C377.453 198.354 384.091 221.515 387.092 231.205L387.092 231.205C394.38 231.171 399.873 230.311 400.562 228.32C404.885 221.771 390.042 195.022 390.571 192.503C391.607 187.535 394.052 182.022 396.442 177.074C398.02 173.829 399.571 170.819 400.696 168.36L400.696 168.353C400.076 165.929 399.717 164.519 399.717 164.519C399.717 164.519 383.921 182.888 380.296 191.556Z" fill-rule="evenodd"  fill="#466FB5" >
</path>
<path d="M416.784 194.98C418.019 196.22 394.599 218.748 394.599 218.748L394.599 218.748L397.72 224.165C417.812 216.207 430.61 198.281 430.61 198.281C431.315 188.099 426.549 176.399 420.845 166.297C419.898 164.63 418.929 163.001 417.954 161.43C413.915 164.88 408.279 169.395 402.91 172.675C403.748 174.056 404.745 175.714 405.826 177.485C410.274 184.824 416.036 194.231 416.784 194.98Z" fill-rule="evenodd"  fill="#F9AF79" >
</path>
<path d="M404.996 179.686C414.89 179.033 422.179 166.165 422.179 166.165C414.459 152.518 403.675 141.939 403.675 141.939C376.257 152.406 400.526 176.736 404.996 179.686L404.996 179.686Z" fill-rule="evenodd"  fill="#6D96CE" >
</path>
<path d="M377.417 222.837C378.493 223.462 382.414 221.398 383.451 222.117C384.478 222.837 391.848 226.868 397.728 224.165C403.61 221.465 394.599 218.748 394.599 218.748L394.599 218.748C394.599 218.748 392.914 218.504 391.803 217.543C390.703 216.583 387.193 213.858 386.994 214.703C386.783 215.546 389.537 216.854 388.089 217.059C386.642 217.266 384.375 216.297 382.104 216.65C379.839 216.992 376.344 222.221 377.417 222.837Z" fill-rule="evenodd"  fill="#F9AF79" >
</path>
<path d="M369.801 116.408C366.472 116.425 364.627 116.306 361.393 116.03C360.098 115.917 362.76 119.527 369.982 116.598C370.154 116.528 370.057 116.405 369.801 116.408L369.801 116.408Z" fill-rule="evenodd"  fill="#EB795B" >
</path>
<path d="M367.243 99.3384C365.629 99.4581 365.718 100.747 366.915 101.052C379.651 104.245 371.247 99.0365 367.243 99.3384L367.243 99.3384Z" fill-rule="evenodd"  fill="#20386F" >
</path>
<path d="M362.856 99.0486C364.368 99.6316 363.905 100.839 362.673 100.783C349.557 100.143 359.112 97.5967 362.856 99.0486L362.856 99.0486Z" fill-rule="evenodd"  fill="#20386F" >
</path>
<path d="M362.097 114.195L362.097 114.195L362.016 114.187C360.605 113.876 359.859 113.684 359.591 113.152C359.348 112.665 359.591 112.117 360.035 111.12C360.53 110.023 361.276 108.349 361.923 105.593C361.969 105.394 362.172 105.275 362.373 105.317C362.571 105.363 362.697 105.562 362.649 105.77C361.988 108.587 361.225 110.3 360.719 111.43C360.426 112.085 360.175 112.65 360.262 112.817C360.38 113.056 361.377 113.278 362.178 113.454C362.381 113.5 362.507 113.7 362.462 113.907C362.423 114.075 362.269 114.195 362.097 114.195Z" fill-rule="evenodd"  fill="#EB795B" >
</path>
<path d="M358.814 107.042C357.896 106.947 357.547 103.363 359.779 103.603C360.97 103.731 360.321 107.203 358.814 107.042L358.814 107.042Z" fill-rule="evenodd"  fill="#20386F" >
</path>
<path d="M367.693 107.684C366.772 107.58 366.424 104.005 368.656 104.245C369.846 104.372 369.199 107.845 367.693 107.684L367.693 107.684Z" fill-rule="evenodd"  fill="#20386F" >
</path>
<circle cx="117.41542053222656" cy="388.55577087402344" transform="rotate(-45 -15.352508544921875 255.787841796875)" r="132.76792907714844"   fill="#FFFFFF" >
</circle>
<circle cx="107.41265869140625" cy="412.70594787597656" transform="rotate(-45 -49.50520324707031 255.7880859375)" r="156.91786193847656"   fill="#F6F8F9" >
</circle>
<path d="M118.169 201.548C132.051 187.667 151.228 179.08 172.41 179.08C193.592 179.08 212.77 187.667 226.651 201.548C240.532 215.429 249.119 234.607 249.119 255.788C249.119 276.971 240.532 296.149 226.651 310.031C212.77 323.911 193.592 332.498 172.41 332.498C151.228 332.498 132.051 323.911 118.169 310.031C104.288 296.149 95.7022 276.971 95.7022 255.788C95.7022 234.607 104.288 215.429 118.169 201.548ZM119.493 202.872C133.036 189.329 151.745 180.954 172.41 180.954C193.075 180.954 211.784 189.329 225.327 202.872C238.869 216.414 247.246 235.124 247.246 255.788C247.246 276.454 238.869 295.164 225.327 308.705C211.784 322.249 193.075 330.625 172.41 330.625C151.745 330.625 133.036 322.249 119.493 308.705C105.951 295.164 97.5746 276.454 97.5746 255.788C97.5746 235.124 105.951 216.414 119.493 202.872Z" fill-rule="evenodd"  fill="#F5D1B5" >
</path>
<path d="M109.418 318.782C93.2975 302.661 83.3254 280.39 83.3254 255.788C83.3254 206.589 123.21 166.705 172.41 166.705C221.61 166.705 261.494 206.589 261.494 255.788C261.494 280.39 251.523 302.659 235.402 318.782C219.281 334.902 197.01 344.873 172.41 344.873C147.809 344.873 125.538 334.902 109.418 318.782ZM110.742 317.458C94.9601 301.674 85.1978 279.87 85.1978 255.788C85.1978 207.623 124.244 168.577 172.41 168.577C220.576 168.577 259.622 207.623 259.622 255.788C259.622 279.87 249.859 301.674 234.078 317.458C218.297 333.24 196.492 343 172.41 343C148.327 343 126.524 333.24 110.742 317.458Z" fill-rule="evenodd"  fill="#F5D1B5" >
</path>
<rect x="171.57159423828125" y="168.2890625" width="1.6766941547393799" height="11.089407920837402"   fill="#F5D1B5" >
</rect>
<rect x="209.89019775390625" y="189.1964111328125" width="11.087968826293945" height="1.6770492792129517" transform="rotate(-60.01009318090408 209.89019775390625 189.1964111328125)"   fill="#F5D1B5" >
</rect>
<rect x="238.16534423828125" y="216.857666015625" width="11.087653160095215" height="1.676102876663208" transform="rotate(-30.0092432741909 238.16534423828125 216.857666015625)"   fill="#F5D1B5" >
</rect>
<rect x="248.820556640625" y="254.95068359375" width="11.089407920837402" height="1.676720380783081"   fill="#F5D1B5" >
</rect>
<rect x="238.16473388671875" y="294.7197265625" width="1.6762053966522217" height="11.088739395141602" transform="rotate(-59.994806714044884 238.16473388671875 294.7197265625)"   fill="#F5D1B5" >
</rect>
<path d="M216.886 331.147L215.433 331.985L209.89 322.383L211.342 321.543L216.886 331.147L216.886 331.147Z" fill-rule="evenodd"  fill="#F5D1B5" >
</path>
<rect x="171.57159423828125" y="332.19970703125" width="1.6766941547393799" height="11.088379859924316"   fill="#F5D1B5" >
</rect>
<rect x="127.93753051757812" y="331.1495361328125" width="11.088638305664062" height="1.6772310733795166" transform="rotate(-60.044819180542675 127.93753051757812 331.1495361328125)"   fill="#F5D1B5" >
</rect>
<rect x="96.21415710449219" y="298.813232421875" width="11.088748931884766" height="1.6761988401412964" transform="rotate(-30.004415986456543 96.21415710449219 298.813232421875)"   fill="#F5D1B5" >
</rect>
<rect x="84.90995788574219" y="254.95068359375" width="11.089269638061523" height="1.676720380783081"   fill="#F5D1B5" >
</rect>
<rect x="96.21479797363281" y="212.763671875" width="1.6760963201522827" height="11.087664604187012" transform="rotate(-59.99153698265816 96.21479797363281 212.763671875)"   fill="#F5D1B5" >
</rect>
<rect x="127.93487548828125" y="180.4312744140625" width="1.6775531768798828" height="11.0881929397583" transform="rotate(-29.989458666403614 127.93487548828125 180.4312744140625)"   fill="#F5D1B5" >
</rect>
<g opacity="0.69">
<path d="M172.41 123.021C237.948 123.021 292.388 170.509 303.215 232.955L172.41 255.788L76.7898 163.688C100.941 138.62 134.852 123.021 172.41 123.021L172.41 123.021Z" fill-rule="evenodd"  fill="#F5D1B5" >
</path>
</g>
<path d="M172.41 381.536C137.686 381.536 106.249 367.46 83.4939 344.705C60.7393 321.951 46.6635 290.513 46.6635 255.788C46.6635 221.065 60.7393 189.629 83.4939 166.873C106.249 144.117 137.686 130.043 172.41 130.043C207.133 130.043 238.572 144.117 261.327 166.873C284.081 189.627 298.156 221.065 298.156 255.788C298.156 290.513 284.081 321.951 261.327 344.705C238.572 367.46 207.133 381.536 172.41 381.536ZM260.664 344.044C238.078 366.629 206.875 380.6 172.41 380.6C137.945 380.6 106.742 366.629 84.1556 344.044C61.5695 321.458 47.6003 290.255 47.6003 255.788C47.6003 221.325 61.5695 190.121 84.1556 167.535C106.742 144.949 137.945 130.978 172.41 130.978C206.875 130.978 238.079 144.949 260.664 167.535C283.25 190.12 297.22 221.325 297.22 255.788C297.22 290.255 283.25 321.458 260.664 344.044Z" fill-rule="evenodd"  fill="#F5D1B5" >
</path>
<path d="M40.4756 255.788C40.4756 219.356 55.2429 186.372 79.1184 162.497C102.993 138.622 135.977 123.854 172.41 123.854C208.843 123.854 241.827 138.622 265.702 162.497C289.577 186.372 304.346 219.356 304.346 255.788C304.346 292.222 289.577 325.207 265.702 349.081C241.827 372.956 208.843 387.724 172.41 387.724C135.977 387.724 102.993 372.956 79.1184 349.081C55.2429 325.207 40.4756 292.222 40.4756 255.788ZM265.04 163.159C288.746 186.865 303.409 219.614 303.409 255.788C303.409 291.962 288.746 324.714 265.04 348.42C241.334 372.125 208.584 386.787 172.41 386.787C136.236 386.787 103.486 372.125 79.7803 348.42C56.0742 324.714 41.4113 291.962 41.4113 255.788C41.4113 219.616 56.0742 186.865 79.7803 163.159C103.486 139.453 136.236 124.79 172.41 124.79C208.584 124.79 241.334 139.453 265.04 163.159Z" fill-rule="evenodd"  fill="#F5D1B5" >
</path>
<path d="M276.516 265.222C276.022 265.222 275.67 265.009 275.458 264.594C275.246 264.174 275.106 263.077 275.038 261.295C274.967 259.514 274.932 256.988 274.932 253.728C274.932 250.885 274.982 249.067 275.083 248.258C275.183 247.455 275.324 246.944 275.507 246.717C275.691 246.494 276.055 246.346 276.601 246.261C276.844 246.219 276.964 246.077 276.964 245.823C276.964 245.543 276.83 245.405 276.562 245.405L273.388 245.563C273.049 245.563 272.594 245.543 272.022 245.495C271.27 245.438 270.773 245.405 270.53 245.405C270.275 245.405 270.148 245.543 270.148 245.813C270.148 246.103 270.278 246.261 270.54 246.293C271.034 246.356 271.369 246.51 271.542 246.757C271.719 247.007 271.841 247.666 271.92 248.744C271.994 249.823 272.032 251.958 272.032 255.143C272.032 258.173 272.011 260.396 271.969 261.834C271.93 263.265 271.806 264.174 271.605 264.551C271.401 264.926 271.009 265.167 270.423 265.285C270.213 265.327 270.106 265.463 270.106 265.697C270.106 265.992 270.234 266.14 270.49 266.14C270.6 266.14 270.787 266.12 271.049 266.083C271.545 265.992 272.318 265.95 273.359 265.95C273.835 265.95 274.725 266.019 276.022 266.157C276.224 266.167 276.375 266.173 276.477 266.173C276.844 266.173 277.028 265.992 277.028 265.629C277.028 265.358 276.859 265.222 276.516 265.222ZM284.673 265.222C284.179 265.222 283.826 265.009 283.615 264.594C283.403 264.174 283.261 263.077 283.194 261.295C283.125 259.514 283.089 256.988 283.089 253.728C283.089 250.885 283.139 249.067 283.24 248.258C283.339 247.455 283.48 246.944 283.664 246.717C283.848 246.494 284.21 246.346 284.758 246.261C285.001 246.219 285.121 246.077 285.121 245.823C285.121 245.543 284.988 245.405 284.719 245.405L281.543 245.563C281.205 245.563 280.75 245.543 280.178 245.495C279.427 245.438 278.93 245.405 278.686 245.405C278.432 245.405 278.305 245.543 278.305 245.813C278.305 246.103 278.435 246.261 278.696 246.293C279.19 246.356 279.526 246.51 279.698 246.757C279.874 247.007 279.998 247.666 280.076 248.744C280.15 249.823 280.189 251.958 280.189 255.143C280.189 258.173 280.168 260.396 280.126 261.834C280.086 263.265 279.964 264.174 279.762 264.551C279.558 264.926 279.166 265.167 278.58 265.285C278.368 265.327 278.263 265.463 278.263 265.697C278.263 265.992 278.389 266.14 278.648 266.14C278.756 266.14 278.944 266.12 279.204 266.083C279.702 265.992 280.475 265.95 281.516 265.95C281.992 265.95 282.881 266.019 284.179 266.157C284.379 266.167 284.531 266.173 284.634 266.173C285.001 266.173 285.184 265.992 285.184 265.629C285.184 265.358 285.015 265.222 284.673 265.222ZM287.919 264.551C288.12 264.174 288.243 263.265 288.282 261.834C288.324 260.396 288.346 258.173 288.346 255.143C288.346 251.958 288.307 249.823 288.233 248.744C288.155 247.666 288.032 247.007 287.854 246.757C287.682 246.51 287.347 246.356 286.853 246.293C286.591 246.261 286.462 246.103 286.462 245.813C286.462 245.543 286.589 245.405 286.843 245.405C287.086 245.405 287.584 245.438 288.335 245.495C288.906 245.543 289.362 245.563 289.7 245.563L292.875 245.405C293.142 245.405 293.278 245.543 293.278 245.823C293.278 246.077 293.159 246.219 292.915 246.261C292.368 246.346 292.003 246.494 291.82 246.717C291.638 246.944 291.496 247.455 291.399 248.258C291.295 249.067 291.245 250.885 291.245 253.728C291.245 256.988 291.281 259.514 291.35 261.295C291.419 263.077 291.561 264.174 291.772 264.594C291.982 265.009 292.336 265.222 292.83 265.222C293.171 265.222 293.341 265.358 293.341 265.629C293.341 265.992 293.159 266.173 292.791 266.173C292.688 266.173 292.538 266.167 292.336 266.157Q290.389 265.95 289.671 265.95C288.631 265.95 287.859 265.992 287.361 266.083C287.101 266.12 286.914 266.14 286.804 266.14C286.546 266.14 286.419 265.992 286.419 265.697C286.419 265.463 286.525 265.327 286.738 265.285C287.322 265.167 287.714 264.926 287.919 264.551Z" fill-rule="evenodd"  fill="#A1775A" >
</path>
<path d="M167.871 355.512C167.085 355.654 166.689 356.183 166.689 357.097C166.689 358.677 167.597 362.946 169.406 369.901C170.009 367.624 170.588 365.319 171.139 362.999L172.147 358.746C172.264 358.228 172.323 357.73 172.323 357.261C172.323 356.775 172.211 356.361 171.985 356.019C171.763 355.68 171.509 355.506 171.227 355.496C170.908 355.475 170.75 355.337 170.75 355.072C170.75 354.74 170.877 354.575 171.131 354.575C171.325 354.575 171.568 354.591 171.858 354.624C172.444 354.697 172.972 354.735 173.438 354.735C173.929 354.735 174.363 354.703 174.743 354.64C175.026 354.597 175.262 354.575 175.446 354.575C175.689 354.575 175.81 354.735 175.81 355.051C175.81 355.315 175.689 355.475 175.446 355.528C175.082 355.607 174.769 355.795 174.504 356.088C174.243 356.384 173.985 356.848 173.735 357.499C173.485 358.143 173.065 359.607 172.483 361.884L170.655 368.986C169.78 372.457 169.191 374.667 168.891 375.628L168.051 375.628L166.157 368.2C165.684 366.322 165.085 364.029 164.358 361.318C163.631 358.614 163.166 357.032 162.954 356.588C162.745 356.144 162.555 355.854 162.382 355.713C162.213 355.568 161.952 355.475 161.602 355.432C161.38 355.422 161.267 355.285 161.267 355.021C161.267 354.725 161.397 354.575 161.658 354.575L164.456 354.735C165.426 354.735 166.39 354.693 167.342 354.601C167.607 354.587 167.766 354.575 167.819 354.575C168.15 354.575 168.316 354.745 168.316 355.088C168.316 355.315 168.167 355.459 167.871 355.512ZM181.983 373.891C182.194 374.306 182.547 374.519 183.042 374.519C183.384 374.519 183.553 374.657 183.553 374.927C183.553 375.29 183.369 375.47 183.002 375.47C182.9 375.47 182.748 375.466 182.547 375.454C181.25 375.316 180.361 375.247 179.884 375.247C178.843 375.247 178.071 375.29 177.574 375.381C177.312 375.417 177.126 375.438 177.016 375.438C176.758 375.438 176.631 375.29 176.631 374.994C176.631 374.76 176.736 374.625 176.948 374.582C177.534 374.467 177.927 374.223 178.13 373.848C178.332 373.473 178.455 372.563 178.494 371.131C178.537 369.694 178.558 367.47 178.558 364.441C178.558 361.255 178.519 359.121 178.445 358.042C178.367 356.965 178.243 356.305 178.067 356.055C177.894 355.807 177.56 355.654 177.065 355.591C176.804 355.558 176.674 355.4 176.674 355.11C176.674 354.841 176.8 354.703 177.055 354.703C177.298 354.703 177.796 354.735 178.547 354.792C179.118 354.841 179.574 354.861 179.912 354.861L183.088 354.703C183.355 354.703 183.49 354.841 183.49 355.121C183.49 355.374 183.369 355.516 183.126 355.558C182.579 355.644 182.216 355.791 182.032 356.014C181.849 356.24 181.708 356.752 181.61 357.556C181.507 358.364 181.457 360.183 181.457 363.026C181.457 366.286 181.493 368.812 181.563 370.592C181.631 372.374 181.772 373.473 181.983 373.891Z" fill-rule="evenodd"  fill="#A1775A" >
</path>
<path d="M159.28 139.019C159.963 140.192 161.184 142.925 162.93 147.204C161.456 150.222 160.451 152.224 159.918 153.213C159.384 154.201 158.933 154.856 158.566 155.178C158.196 155.496 157.699 155.718 157.074 155.844C156.859 155.887 156.753 156.024 156.753 156.257C156.753 156.574 156.954 156.733 157.353 156.733C157.491 156.733 157.766 156.701 158.178 156.637C158.504 156.595 158.952 156.574 159.529 156.574C160.144 156.574 160.758 156.606 161.368 156.663C161.879 156.711 162.189 156.733 162.31 156.733C162.556 156.733 162.68 156.579 162.68 156.272C162.68 156.061 162.561 155.929 162.317 155.876C161.216 155.639 160.666 155.152 160.666 154.423C160.666 153.741 161.569 151.654 163.374 148.155C165.065 151.723 165.912 153.905 165.912 154.688C165.912 155.369 165.538 155.76 164.786 155.861C164.553 155.892 164.437 156.04 164.437 156.3C164.437 156.589 164.536 156.733 164.737 156.733C164.793 156.733 164.871 156.721 164.973 156.706C165.044 156.696 165.228 156.69 165.524 156.696C165.647 156.685 165.922 156.663 166.349 156.637C166.84 156.595 167.334 156.574 167.831 156.574L171.644 156.733C171.976 156.733 172.142 156.589 172.142 156.304C172.142 156.05 171.98 155.898 171.655 155.844C171.27 155.781 170.823 155.484 170.312 154.956C169.8 154.428 169.03 153.049 167.993 150.83C166.96 148.605 166.049 146.497 165.262 144.5C166.695 141.725 167.616 139.981 168.021 139.278C168.427 138.58 168.872 138.026 169.355 137.618C169.835 137.213 170.312 137 170.784 136.98C171.042 136.958 171.168 136.816 171.168 136.542C171.168 136.24 171.003 136.092 170.671 136.092C170.583 136.092 170.35 136.108 169.969 136.144C169.165 136.213 168.512 136.25 168.017 136.25C167.658 136.25 167.221 136.219 166.706 136.161C166.332 136.113 166.067 136.092 165.909 136.092C165.647 136.092 165.516 136.229 165.516 136.499C165.516 136.758 165.626 136.917 165.848 136.98C166.321 137.138 166.639 137.318 166.794 137.529C166.949 137.736 167.027 138.016 167.027 138.375C167.027 139.072 166.279 140.806 164.791 143.575C163.929 141.608 163.357 140.251 163.069 139.501C162.778 138.75 162.634 138.233 162.634 137.942C162.634 137.618 162.775 137.387 163.057 137.233C163.34 137.085 163.565 137 163.738 136.98C164.036 136.958 164.182 136.805 164.182 136.519C164.182 136.234 163.996 136.092 163.626 136.092C163.541 136.092 163.238 136.113 162.715 136.156C161.848 136.219 161.107 136.25 160.494 136.25C159.026 136.25 158.072 136.219 157.632 136.15C157.403 136.113 157.226 136.092 157.092 136.092C156.838 136.092 156.711 136.24 156.711 136.536C156.711 136.789 156.848 136.948 157.124 137.011C157.875 137.175 158.595 137.846 159.28 139.019ZM174.957 145.831C174.957 148.859 174.936 151.083 174.894 152.52C174.855 153.953 174.731 154.862 174.531 155.237C174.326 155.612 173.934 155.856 173.349 155.971C173.137 156.014 173.031 156.151 173.031 156.384C173.031 156.679 173.158 156.828 173.415 156.828C173.525 156.828 173.711 156.806 173.973 156.769C174.471 156.679 175.243 156.637 176.284 156.637C176.76 156.637 177.649 156.706 178.948 156.843C179.149 156.854 179.3 156.859 179.403 156.859C179.77 156.859 179.952 156.679 179.952 156.315C179.952 156.045 179.784 155.908 179.441 155.908C178.948 155.908 178.595 155.697 178.383 155.279C178.171 154.862 178.03 153.762 177.963 151.982C177.892 150.201 177.858 147.675 177.858 144.414C177.858 141.572 177.907 139.753 178.009 138.945C178.107 138.142 178.249 137.629 178.433 137.403C178.616 137.18 178.979 137.032 179.527 136.948C179.77 136.906 179.889 136.763 179.889 136.509C179.889 136.229 179.755 136.092 179.487 136.092L176.312 136.25C175.974 136.25 175.518 136.229 174.946 136.182C174.195 136.124 173.697 136.092 173.454 136.092C173.199 136.092 173.074 136.229 173.074 136.499C173.074 136.789 173.204 136.948 173.465 136.98C173.959 137.042 174.295 137.196 174.467 137.445C174.644 137.693 174.767 138.353 174.844 139.432C174.918 140.51 174.957 142.645 174.957 145.831ZM181.23 136.499C181.23 136.229 181.357 136.092 181.611 136.092C181.855 136.092 182.352 136.124 183.104 136.182C183.675 136.229 184.13 136.25 184.469 136.25L187.644 136.092C187.912 136.092 188.046 136.229 188.046 136.509C188.046 136.763 187.926 136.906 187.683 136.948C187.135 137.032 186.773 137.18 186.588 137.403C186.406 137.629 186.265 138.142 186.165 138.945C186.063 139.753 186.013 141.572 186.013 144.414C186.013 147.675 186.049 150.201 186.12 151.982C186.187 153.762 186.329 154.862 186.54 155.279C186.751 155.697 187.104 155.908 187.598 155.908C187.941 155.908 188.11 156.045 188.11 156.315C188.11 156.679 187.926 156.859 187.559 156.859C187.457 156.859 187.306 156.854 187.104 156.843C185.805 156.706 184.916 156.637 184.441 156.637C183.4 156.637 182.627 156.679 182.13 156.769C181.868 156.806 181.682 156.828 181.572 156.828C181.315 156.828 181.188 156.679 181.188 156.384C181.188 156.151 181.293 156.014 181.505 155.971C182.091 155.856 182.483 155.612 182.687 155.237C182.888 154.862 183.012 153.953 183.05 152.52C183.093 151.083 183.114 148.859 183.114 145.831C183.114 142.645 183.076 140.51 183.001 139.432C182.923 138.353 182.8 137.693 182.623 137.445C182.451 137.196 182.115 137.042 181.622 136.98C181.36 136.948 181.23 136.789 181.23 136.499Z" fill-rule="evenodd"  fill="#A1775A" >
</path>
<path d="M56.503 248.258C56.4005 249.067 56.3518 250.885 56.3518 253.728C56.3518 256.988 56.3874 259.514 56.4571 261.295C56.5253 263.077 56.6661 264.174 56.878 264.594C57.0889 265.009 57.4416 265.222 57.9361 265.222C58.2781 265.222 58.4473 265.358 58.4473 265.629C58.4473 265.992 58.2638 266.173 57.8969 266.173C57.7943 266.173 57.6435 266.167 57.4416 266.157C56.1438 266.019 55.254 265.95 54.7784 265.95C53.7373 265.95 52.9648 265.992 52.4671 266.083C52.2057 266.12 52.0191 266.14 51.9097 266.14C51.6522 266.14 51.5253 265.992 51.5253 265.697C51.5253 265.463 51.6308 265.327 51.8428 265.285C52.4286 265.167 52.8198 264.926 53.0248 264.551C53.2254 264.174 53.3491 263.265 53.3885 261.834C53.4313 260.396 53.4515 258.173 53.4515 255.143C53.4515 251.958 53.4131 249.823 53.3391 248.744C53.261 247.666 53.1372 247.007 52.9608 246.757C52.7885 246.51 52.4529 246.356 51.9593 246.293C51.6977 246.261 51.5669 246.103 51.5669 245.813C51.5669 245.543 51.6948 245.405 51.9491 245.405C52.1926 245.405 52.6903 245.438 53.4415 245.495C54.0132 245.543 54.4673 245.563 54.8068 245.563L57.982 245.405C58.2507 245.405 58.3833 245.543 58.3833 245.823C58.3833 246.077 58.2638 246.219 58.0204 246.261C57.4742 246.346 57.1101 246.494 56.9267 246.717C56.7432 246.944 56.6021 247.455 56.503 248.258ZM69.2325 245.474C69.7474 245.533 70.1852 245.563 70.5444 245.563C71.0389 245.563 71.6907 245.527 72.4955 245.458C72.877 245.419 73.1098 245.405 73.1973 245.405C73.5287 245.405 73.6958 245.553 73.6958 245.853C73.6958 246.129 73.5681 246.271 73.3107 246.293C72.8383 246.314 72.3618 246.526 71.8812 246.932C71.3987 247.339 70.9537 247.893 70.5483 248.59C70.1428 249.294 69.2213 251.04 67.7899 253.813C68.5765 255.81 69.4871 257.919 70.5198 260.143C71.5569 262.363 72.3263 263.742 72.8383 264.271C73.3494 264.798 73.7974 265.094 74.1824 265.159C74.507 265.212 74.6693 265.366 74.6693 265.617C74.6693 265.903 74.5027 266.047 74.1713 266.047L70.3577 265.887C69.86 265.887 69.3663 265.909 68.8765 265.95C68.449 265.978 68.1741 265.998 68.0504 266.008C67.7535 266.003 67.5708 266.008 67.5001 266.019C67.3977 266.035 67.3204 266.047 67.2636 266.047C67.0621 266.047 66.9636 265.903 66.9636 265.613C66.9636 265.354 67.0802 265.206 67.3134 265.173C68.0646 265.074 68.4387 264.683 68.4387 264.001C68.4387 263.219 67.5914 261.037 65.9023 257.471C64.0959 260.969 63.1925 263.054 63.1925 263.736C63.1925 264.466 63.7429 264.952 64.844 265.19C65.0872 265.242 65.2069 265.374 65.2069 265.587C65.2069 265.893 65.0833 266.047 64.8358 266.047C64.7163 266.047 64.4062 266.025 63.894 265.978C63.2839 265.919 62.6706 265.887 62.0563 265.887C61.4782 265.887 61.0292 265.909 60.706 265.95C60.2925 266.015 60.0177 266.047 59.8797 266.047C59.4813 266.047 59.2795 265.887 59.2795 265.569C59.2795 265.338 59.3859 265.199 59.601 265.159C60.2253 265.031 60.7231 264.81 61.0932 264.492C61.4601 264.17 61.9123 263.515 62.4445 262.527C62.9778 261.538 63.9825 259.535 65.4572 256.518C63.7106 252.238 62.49 249.507 61.8059 248.333C61.1215 247.159 60.4016 246.488 59.6497 246.324C59.376 246.261 59.2381 246.103 59.2381 245.849C59.2381 245.553 59.3646 245.405 59.6182 245.405C59.7528 245.405 59.9295 245.428 60.1584 245.464C60.5996 245.533 61.5524 245.563 63.019 245.563C63.6335 245.563 64.3735 245.533 65.2424 245.468C65.7643 245.428 66.0677 245.405 66.1527 245.405C66.5226 245.405 66.7102 245.549 66.7102 245.833C66.7102 246.119 66.5613 246.271 66.2653 246.293C66.093 246.314 65.8668 246.399 65.5851 246.547C65.3022 246.701 65.1614 246.932 65.1614 247.254C65.1614 247.544 65.3062 248.063 65.5942 248.813C65.8842 249.563 66.4559 250.922 67.3166 252.888C68.8046 250.119 69.554 248.386 69.554 247.688C69.554 247.329 69.4757 247.05 69.3207 246.843C69.1656 246.632 68.8482 246.451 68.3749 246.293C68.1528 246.23 68.0433 246.072 68.0433 245.813C68.0433 245.543 68.1741 245.405 68.4347 245.405C68.5939 245.405 68.8584 245.428 69.2325 245.474Z" fill-rule="evenodd"  fill="#A1775A" >
</path>
<path d="M229.65 156.473C230.138 156.756 230.308 157.386 230.025 157.875L224.318 167.76C224.036 168.249 223.405 168.418 222.916 168.136L222.916 168.135C222.427 167.852 222.258 167.222 222.539 166.733L228.247 156.848C228.53 156.359 229.16 156.19 229.649 156.473L229.649 156.473L229.65 156.473Z" fill-rule="evenodd"  fill="#A1775A" >
</path>
<path d="M271.581 198.394L271.582 198.394C271.864 198.884 271.695 199.514 271.206 199.796L261.321 205.505C260.831 205.786 260.201 205.617 259.919 205.127L259.918 205.127C259.636 204.639 259.805 204.008 260.294 203.725L270.179 198.019C270.669 197.736 271.299 197.905 271.581 198.394L271.581 198.394Z" fill-rule="evenodd"  fill="#A1775A" >
</path>
<path d="M271.596 312.941L271.595 312.941C271.313 313.429 270.682 313.6 270.193 313.316L260.308 307.611C259.819 307.327 259.65 306.696 259.932 306.208C260.215 305.719 260.846 305.549 261.335 305.832L271.219 311.538C271.709 311.822 271.878 312.452 271.596 312.941L271.596 312.941Z" fill-rule="evenodd"  fill="#A1775A" >
</path>
<path d="M229.674 354.873C229.184 355.155 228.554 354.986 228.271 354.498L222.565 344.612C222.282 344.123 222.451 343.493 222.94 343.211L222.941 343.211C223.429 342.929 224.06 343.098 224.342 343.586L230.049 353.47C230.332 353.959 230.163 354.591 229.674 354.873L229.674 354.873Z" fill-rule="evenodd"  fill="#A1775A" >
</path>
<path d="M115.128 354.887L115.128 354.887L115.127 354.887C114.638 354.605 114.468 353.975 114.751 353.484L120.458 343.6C120.741 343.112 121.372 342.941 121.861 343.223L121.861 343.225C122.349 343.507 122.519 344.137 122.237 344.626L116.529 354.51C116.248 355.001 115.616 355.169 115.128 354.887Z" fill-rule="evenodd"  fill="#A1775A" >
</path>
<path d="M73.1951 312.965C72.9132 312.477 73.0814 311.846 73.5701 311.562L83.4552 305.857C83.9447 305.573 84.5753 305.743 84.8584 306.232C85.14 306.721 84.9718 307.351 84.4819 307.635L74.5969 313.34C74.1085 313.624 73.4778 313.454 73.1951 312.965L73.1951 312.965Z" fill-rule="evenodd"  fill="#A1775A" >
</path>
<path d="M73.1808 198.418C73.4638 197.93 74.0942 197.761 74.5838 198.043L84.468 203.75C84.9576 204.032 85.1258 204.663 84.8438 205.152L84.8438 205.153C84.5611 205.641 83.9305 205.81 83.4409 205.528L73.557 199.821C73.0674 199.539 72.8993 198.908 73.1808 198.418L73.1808 198.418Z" fill-rule="evenodd"  fill="#A1775A" >
</path>
<path d="M115.103 156.486C115.591 156.204 116.222 156.373 116.505 156.862L122.211 166.747C122.494 167.237 122.325 167.866 121.836 168.149C121.348 168.432 120.716 168.263 120.434 167.774L114.727 157.889C114.444 157.401 114.614 156.769 115.103 156.486L115.103 156.486Z" fill-rule="evenodd"  fill="#A1775A" >
</path>
<path d="M171.07 265.106C165.866 264.389 162.231 259.588 162.948 254.385C163.667 249.18 168.468 245.545 173.672 246.263C178.875 246.981 182.512 251.782 181.793 256.986C181.075 262.191 176.274 265.826 171.07 265.106ZM179.438 256.66C178.899 260.565 175.298 263.29 171.395 262.753C167.492 262.213 164.765 258.613 165.304 254.709C165.843 250.807 169.444 248.08 173.346 248.619C177.249 249.158 179.976 252.759 179.438 256.66Z" fill-rule="evenodd"  fill="#866B58" >
</path>
<path d="M161.36 233.81C160.326 241.304 153.414 246.539 145.921 245.505C142.173 244.985 138.99 242.999 136.875 240.203C131.078 233.85 124.902 221.696 118.345 203.747C134.564 209.088 146.145 214.275 153.09 219.305C158.681 221.645 162.228 227.525 161.36 233.81ZM157.968 233.342C157.193 238.962 152.008 242.889 146.389 242.113C140.77 241.336 136.844 236.154 137.62 230.534C138.395 224.913 143.579 220.989 149.198 221.763C154.818 222.54 158.744 227.724 157.968 233.342Z" fill-rule="evenodd"  fill="#866B58" >
</path>
<path d="M159.841 252.447C156.197 251.944 153.65 248.583 154.153 244.939C154.656 241.296 158.018 238.749 161.663 239.25C165.307 239.755 167.854 243.116 167.351 246.762C166.847 250.405 163.486 252.95 159.841 252.447ZM165.701 246.533C165.323 249.266 162.802 251.176 160.069 250.799C157.335 250.421 155.425 247.899 155.802 245.166C156.179 242.433 158.702 240.523 161.436 240.9C164.169 241.278 166.078 243.8 165.701 246.533Z" fill-rule="evenodd"  fill="#866B58" >
</path>
<path d="M194.332 254.403C193.499 257.633 190.358 259.797 186.973 259.328C183.33 258.825 180.783 255.464 181.285 251.818C181.789 248.175 185.152 245.627 188.795 246.132C190.75 246.401 192.389 247.494 193.411 249.012C193.967 245.799 196.347 243.327 199.332 242.521C210.697 238.226 241.981 235.564 293.181 234.53C247.23 249.665 217.566 257.526 204.184 258.116C202.993 258.537 201.684 258.689 200.343 258.505C197.708 258.14 195.541 256.557 194.332 254.403ZM254.733 237.529C263.552 236.985 273.321 236.507 284.037 236.093C274.078 239.171 264.944 241.892 256.635 244.26C254.307 242.326 253.673 240.081 254.733 237.529ZM231.219 251.03C232.341 250.016 233.125 248.617 233.348 247.001C233.818 243.595 231.622 240.432 228.353 239.625C235.541 238.885 243.844 238.226 253.244 237.622C252.055 240.306 252.718 242.65 255.232 244.659C246.24 247.208 238.234 249.331 231.219 251.03ZM207.733 255.646C208.682 254.511 209.337 253.104 209.553 251.528C210.046 247.951 208.147 244.6 205.079 243.084C209.864 241.999 216.101 241.012 223.787 240.124C221.882 241.073 220.463 242.914 220.151 245.18C219.691 248.514 221.781 251.607 224.928 252.5C218.055 254.038 212.322 255.087 207.733 255.646ZM205.079 243.084L205.079 243.084L204.97 243.031C205.007 243.048 205.043 243.066 205.079 243.084ZM231.699 246.774C231.322 249.507 228.799 251.417 226.066 251.04C223.333 250.665 221.422 248.141 221.801 245.408C222.178 242.675 224.7 240.765 227.433 241.142C230.165 241.519 232.076 244.041 231.699 246.774ZM207.531 251.249C207.069 254.6 203.975 256.944 200.624 256.482C197.271 256.02 194.927 252.925 195.39 249.572C195.852 246.221 198.946 243.879 202.299 244.341C205.65 244.803 207.994 247.897 207.531 251.249ZM187.201 257.678C184.469 257.303 182.557 254.779 182.936 252.045C183.312 249.312 185.835 247.402 188.568 247.779C191.3 248.157 193.211 250.681 192.834 253.412C192.457 256.145 189.934 258.057 187.201 257.678Z" fill-rule="evenodd"  fill="#866B58" >
</path>
<path d="M171.859 252.694C173.511 252.412 175.079 253.521 175.361 255.176C175.644 256.826 174.533 258.395 172.881 258.676C171.229 258.959 169.662 257.848 169.379 256.196C169.097 254.543 170.207 252.976 171.859 252.694L171.859 252.694Z" fill-rule="evenodd"  fill="#866B58" >
</path>
<path d="M172.41 407.975C88.3597 407.975 20.2232 339.839 20.2232 255.788C20.2232 171.738 88.3597 103.601 172.41 103.601C202.79 103.601 231.089 112.503 254.845 127.84C296.814 154.935 324.597 202.118 324.597 255.788C324.597 309.459 296.814 356.643 254.845 383.738C231.089 399.074 202.79 407.975 172.41 407.975ZM254.845 360.376C232.171 378.272 203.538 388.953 172.41 388.953C98.8652 388.953 39.2458 329.333 39.2458 255.788C39.2458 182.245 98.8652 122.625 172.41 122.625C203.537 122.625 232.171 133.306 254.845 151.201C285.742 175.587 305.575 213.371 305.575 255.788C305.575 298.205 285.742 335.991 254.845 360.376Z" fill-rule="evenodd"  fill="#D0A382" >
</path>
<path d="M172.41 414.317C84.8573 414.317 13.8821 343.341 13.8821 255.788C13.8821 168.235 84.8573 97.2615 172.41 97.2615C259.963 97.2615 330.939 168.235 330.939 255.788C330.939 343.341 259.963 414.317 172.41 414.317ZM325.601 255.788C325.601 340.395 257.016 408.981 172.41 408.981C87.8043 408.981 19.2195 340.395 19.2195 255.788C19.2195 171.183 87.8043 102.598 172.41 102.598C257.016 102.598 325.601 171.183 325.601 255.788Z" fill-rule="evenodd"  fill="#A1775A" >
</path>
<rect x="171.99533081054688" y="124.3748779296875" width="0.8292266726493835" height="6.188851833343506"   fill="#F5D1B5" >
</rect>
<rect x="204.39031982421875" y="134.724853515625" width="6.1888108253479" height="0.829155445098877" transform="rotate(-74.9795408742754 204.39031982421875 134.724853515625)"   fill="#F5D1B5" >
</rect>
<rect x="234.60537719726562" y="147.1300048828125" width="6.189897060394287" height="0.8288902044296265" transform="rotate(-59.98884419668784 234.60537719726562 147.1300048828125)"   fill="#F5D1B5" >
</rect>
<rect x="260.5811767578125" y="166.9320068359375" width="6.189069747924805" height="0.8286890983581543" transform="rotate(-45.006433124624174 260.5811767578125 166.9320068359375)"   fill="#F5D1B5" >
</rect>
<rect x="280.5458679199219" y="192.78271484375" width="6.189097881317139" height="0.828980028629303" transform="rotate(-30.019032557974246 280.5458679199219 192.78271484375)"   fill="#F5D1B5" >
</rect>
<rect x="293.1385803222656" y="222.9195556640625" width="6.189932823181152" height="0.8291428089141846" transform="rotate(-15.018103191561815 293.1385803222656 222.9195556640625)"   fill="#F5D1B5" >
</rect>
<rect x="297.50543212890625" y="255.287109375" width="6.1878252029418945" height="0.8294636011123657"   fill="#F5D1B5" >
</rect>
<path d="M299.32 289.284L299.107 290.085L293.128 288.483L293.341 287.684L299.32 289.284L299.32 289.284Z" fill-rule="evenodd"  fill="#F5D1B5" >
</path>
<rect x="280.5229187011719" y="318.6182861328125" width="0.8289249539375305" height="6.188528060913086" transform="rotate(-60.05395756652116 280.5229187011719 318.6182861328125)"   fill="#F5D1B5" >
</rect>
<rect x="260.54986572265625" y="344.4586181640625" width="0.8286426067352295" height="6.189042091369629" transform="rotate(-45.006433124624174 260.54986572265625 344.4586181640625)"   fill="#F5D1B5" >
</rect>
<rect x="234.5701904296875" y="364.250244140625" width="0.8288336992263794" height="6.188528060913086" transform="rotate(-29.954223075703467 234.5701904296875 364.250244140625)"   fill="#F5D1B5" >
</rect>
<rect x="204.347412109375" y="376.646728515625" width="0.8287140727043152" height="6.188078880310059" transform="rotate(-15.03826159604831 204.347412109375 376.646728515625)"   fill="#F5D1B5" >
</rect>
<rect x="171.95175170898438" y="380.79638671875" width="0.8292266726493835" height="6.1878252029418945"   fill="#F5D1B5" >
</rect>
<rect x="137.97979736328125" y="382.3970947265625" width="6.189685344696045" height="0.8287575244903564" transform="rotate(-74.94591326911691 137.97979736328125 382.3970947265625)"   fill="#F5D1B5" >
</rect>
<rect x="106.35624694824219" y="369.1741943359375" width="6.188777923583984" height="0.8293805718421936" transform="rotate(-59.96293709937136 106.35624694824219 369.1741943359375)"   fill="#F5D1B5" >
</rect>
<rect x="79.23318481445312" y="348.2191162109375" width="6.190493583679199" height="0.8286426067352295" transform="rotate(-45.006433124624174 79.23318481445312 348.2191162109375)"   fill="#F5D1B5" >
</rect>
<rect x="58.456695556640625" y="320.955810546875" width="6.189040660858154" height="0.8280358910560608" transform="rotate(-30.007515854024376 58.456695556640625 320.955810546875)"   fill="#F5D1B5" >
</rect>
<path d="M45.6589 290.044L45.445 289.241L51.423 287.64L51.6369 288.443L45.6589 290.044L45.6589 290.044Z" fill-rule="evenodd"  fill="#F5D1B5" >
</path>
<rect x="41.0828857421875" y="255.2447509765625" width="6.189878463745117" height="0.82717365026474"   fill="#F5D1B5" >
</rect>
<rect x="45.45556640625" y="222.0770263671875" width="0.8289070725440979" height="6.188899993896484" transform="rotate(-75.03693635428642 45.45556640625 222.0770263671875)"   fill="#F5D1B5" >
</rect>
<rect x="58.47767639160156" y="190.368896484375" width="0.8286095261573792" height="6.189029216766357" transform="rotate(-60.03813932266292 58.47767639160156 190.368896484375)"   fill="#F5D1B5" >
</rect>
<rect x="79.26435852050781" y="163.1109619140625" width="0.8286797404289246" height="6.189060688018799" transform="rotate(-45 79.26435852050781 163.1109619140625)"   fill="#F5D1B5" >
</rect>
<rect x="106.39637756347656" y="142.1622314453125" width="0.8293688893318176" height="6.188784599304199" transform="rotate(-29.97661422991363 106.39637756347656 142.1622314453125)"   fill="#F5D1B5" >
</rect>
<rect x="138.02371215820312" y="128.951171875" width="0.8291725516319275" height="6.188847541809082" transform="rotate(-15.020460774930674 138.02371215820312 128.951171875)"   fill="#F5D1B5" >
</rect>
<path d="M126.395 118.043C126.882 117.873 127.414 118.13 127.584 118.617C127.753 119.103 127.496 119.637 127.01 119.805C110.189 125.665 95.1305 133.97 81.8372 144.719C68.5451 155.467 57.0127 168.667 47.2404 184.315L47.2404 184.315C46.9685 184.753 46.3919 184.887 45.9539 184.614C45.5159 184.343 45.3811 183.766 45.6538 183.328C55.5366 167.502 67.208 154.147 80.6664 143.263C94.1247 132.38 109.369 123.973 126.395 118.043Z" fill-rule="evenodd"  fill="#F6EAE0" >
</path>
<path d="M311.234 294.11C311.39 293.617 311.917 293.347 312.408 293.503C312.898 293.66 313.17 294.185 313.016 294.675C307.322 312.444 299.29 328.258 288.919 342.114C278.547 355.97 265.836 367.865 250.788 377.798C250.357 378.081 249.779 377.964 249.495 377.534C249.211 377.102 249.33 376.525 249.759 376.241C264.626 366.428 277.181 354.678 287.426 340.991C297.67 327.307 305.605 311.68 311.234 294.11L311.234 294.11Z" fill-rule="evenodd"  fill="#F6EAE0" >
</path>
<path d="M57.9638 297.431C66.26 305.003 62.6531 312.582 56.5232 326.651C50.3919 340.719 49.3082 392.672 49.3082 392.672L54.3567 391.952C54.3567 391.952 53.6329 338.558 60.488 324.127C67.3428 309.695 70.2329 302.481 76.3643 307.171C82.4953 311.862 57.9638 297.431 57.9638 297.431L57.9638 297.431Z" fill-rule="evenodd"  fill="#B0C2E4" >
</path>
<path d="M110.498 303.618C108.945 306.081 107.242 308.219 105.426 310.072C101.939 310.739 98.8965 310.745 97.2886 310.055C92.2403 307.892 79.2543 301.035 76.0062 303.924C72.829 306.749 100.06 308.539 98.1727 315.716C84.9718 323.319 69.8671 319.702 67.1999 312.72C63.6091 303.345 50.3758 301.137 53.4099 287.62L53.4099 287.62C54.4124 283.131 60.4007 278.273 68.4023 274.151C67.208 280.775 63.4025 291.602 67.3428 293.824C72.67 296.816 67.8608 281.699 69.9147 273.39C77.4315 269.721 86.4761 266.72 94.7967 265.23C94.7806 265.26 94.7726 265.291 94.7643 265.322C90.0749 277.229 83.9439 281.918 86.4678 283.721C88.3627 285.077 94.5495 271.327 102.726 264.277C108.857 263.951 114.049 264.78 117.115 267.213C121.86 270.968 125.045 274.301 120.275 285.738C117.552 287.685 114.017 289.081 109.917 289.493C99.0961 290.576 94.0405 290.936 101.619 294.545C105.33 296.311 111.541 294.446 116.588 293.307C114.957 296.321 112.942 299.731 110.498 303.618Z" fill-rule="evenodd"  fill="#C4D1EB" >
</path>
<path d="M80.6958 338.919C66.26 328.094 51.4747 338.195 43.895 349.741C36.3223 361.284 41.7295 387.258 41.7295 387.258C41.7295 387.258 44.6199 387.258 44.6199 386.177C44.6199 385.095 36.6811 355.514 55.4395 342.163C67.1754 333.816 75.6404 337.836 76.723 341.804C77.8055 345.771 72.0332 352.988 72.0332 352.988L80.6958 338.919L80.6958 338.919Z" fill-rule="evenodd"  fill="#B0C2E4" >
</path>
<path d="M47.5018 316.669C61.9374 316.669 66.626 339.039 62.6531 352.024C58.6884 365.012 53.274 389.182 53.274 389.182L49.6673 385.577C49.6673 385.577 63.378 351.666 60.1299 336.513C56.881 321.361 48.9506 318.835 47.5018 318.835C46.0602 318.835 47.5018 316.669 47.5018 316.669L47.5018 316.669Z" fill-rule="evenodd"  fill="#B0C2E4" >
</path>
<path d="M59.6038 352.126C60.6227 350.78 61.8727 349.67 63.4025 348.931C63.2028 350.009 62.9564 351.043 62.6531 352.024C60.8456 357.943 58.7431 366.18 56.9761 373.396C56.8254 372.474 56.5708 371.048 56.1967 368.853C56.1015 368.334 56.0376 367.77 55.9818 367.174C57.3989 362.367 58.7363 357.128 59.6038 352.126L59.6038 352.126Z" fill-rule="evenodd"  fill="#B0C2E4" >
</path>
<path d="M106.548 340.466C104.399 341.076 101.795 341.518 98.8894 341.082C91.6756 340 94.1998 345.772 106.111 347.215C108.348 347.487 110.171 347.864 111.684 348.391C117.362 359.287 119.917 373.617 107.91 378.601C105.546 379.584 102.623 380.144 99.367 380.355C95.6645 377.411 100.274 360.376 94.5576 362.728C89.0806 364.986 96.286 377.33 95.2976 380.44C89.8833 380.344 83.8882 379.459 78.1714 378.039C75.9027 376.77 74.1672 375.067 73.641 372.831C71.8338 365.252 83.737 360.562 84.1029 354.069C84.4304 348.1 79.7328 367.202 67.3033 370.017C56.0528 364.761 50.7347 357.631 63.5534 352.233L63.5534 352.233C90.9659 340.689 76.5232 324.848 100.697 335.31C102.4 336.046 104.471 337.905 106.548 340.466Z" fill-rule="evenodd"  fill="#C4D1EB" >
</path>
<path d="M29.4199 305.67C36.8404 306.053 44.2296 309.22 49.6833 316.791C49.6833 316.791 49.1653 320.027 52.589 325.031C61.9283 338.682 51.1484 346.652 38.2657 346.135C38.9977 342.538 42.0235 336.06 44.0134 331.823L44.0134 331.823C46.9048 325.692 39.325 324.246 39.6909 328.934C40.0013 333.094 40.0407 343.195 35.7809 345.944C28.4325 345.147 18.4318 342.185 10.8683 337.672C10.773 337.062 10.8683 336.433 11.1857 335.792C14.4346 329.296 35.3593 323.887 28.8621 321.722C23.6952 319.996 14.6262 330.172 7.32413 335.298C2.93768 331.969 0 328.003 0 323.577C0 317.582 7.28467 310.797 16.7043 307.554C20.9399 307.984 24.8813 310.299 31.0275 313.784C40.1126 318.934 38.0101 310.607 29.4199 305.67Z" fill-rule="evenodd"  fill="#C4D1EB" >
</path>
<path d="M79.8281 338.304C86.8826 343.759 94.7166 350.133 104.335 354.46C113.962 358.79 112.035 372.9 112.035 372.9C112.035 372.9 113.475 360.715 105.458 356.544C97.4397 352.377 92.1532 347.404 86.0615 346.445C79.9628 345.48 76.5953 344.519 76.5953 344.519C76.5953 344.519 78.5223 340.671 77.4002 339.227C76.2768 337.785 79.8281 338.304 79.8281 338.304L79.8281 338.304Z" fill-rule="evenodd"  fill="#B0C2E4" >
</path>
<path d="M114.598 274.287C88.7843 281.182 69.867 297.698 66.3321 301.709C62.8042 305.715 62.8042 306.838 62.8042 306.838L65.536 311.97L66.8177 311.327C66.8177 311.327 64.7315 306.998 70.1852 301.386C79.5888 291.707 91.0299 284.067 98.8894 280.702C106.748 277.334 114.598 274.287 114.598 274.287L114.598 274.287Z" fill-rule="evenodd"  fill="#B0C2E4" >
</path>
<path d="M43.3375 417.184L53.2022 417.184C60.2171 417.184 65.9022 411.498 65.9022 404.484L65.9022 381.824L30.6372 381.824L30.6372 404.484C30.6372 411.498 36.3223 417.184 43.3375 417.184L43.3375 417.184Z" fill-rule="evenodd"  fill="#9DB2D9" >
</path>
<rect x="30.637237548828125" y="385.873291015625" width="35.26401138305664" height="2.483574151992798"   fill="#FFFFFF" >
</rect>
<rect x="30.637237548828125" y="390.400634765625" width="35.26401138305664" height="1.4597538709640503"   fill="#FFFFFF" >
</rect>
<path d="M418.583 89.3826L456.574 104.958L446.144 118.282L418.583 89.3826L418.583 89.3826Z" fill-rule="evenodd"  fill="#C4D1EB" >
</path>
<path d="M461.934 98.6786L419.742 89.4668L472.266 93.3038L461.934 98.6786L461.934 98.6786Z" fill-rule="evenodd"  fill="#C4D1EB" >
</path>
<path d="M461.934 98.6785L460.949 116.17L456.574 104.958L418.583 89.3826L419.742 89.4667L461.934 98.6785L461.934 98.6785Z" fill-rule="evenodd"  fill="#9DB2D9" >
</path>
<path d="M460.949 116.17L451.953 110.861L456.573 104.958L460.949 116.17L460.949 116.17Z" fill-rule="evenodd"  fill="#859AC6" >
</path>
<path d="M472.725 113.26C473.943 113.412 473.685 115.217 472.522 115.072L470.718 114.876C469.481 114.72 469.76 112.92 470.906 113.063L472.725 113.26ZM478.175 113.947C476.944 113.793 476.767 115.609 477.919 115.752L479.713 116.013C480.961 116.17 481.118 114.354 479.985 114.212L478.175 113.947ZM485.068 116.926C483.908 116.636 484.184 114.984 485.408 115.136L487.209 115.495C488.466 115.809 487.914 117.547 486.842 117.279L485.068 116.926ZM492.116 118.513C490.98 118.228 491.386 116.453 492.578 116.752L494.354 117.24C495.449 117.514 495.092 119.303 493.855 118.993L492.116 118.513ZM498.968 120.687C497.855 120.268 498.482 118.558 499.617 118.983C500.193 119.204 500.768 119.43 501.336 119.671C502.458 120.152 501.72 121.817 500.633 121.352C500.083 121.118 499.528 120.9 498.968 120.687ZM505.409 123.73C504.398 123.153 505.264 121.549 506.34 122.164C506.878 122.483 507.403 122.816 507.922 123.167C508.862 123.84 508.007 125.308 506.904 124.678C506.413 124.346 505.919 124.033 505.409 123.73ZM510.873 128.088C510.046 127.097 511.514 126.015 512.224 126.867C512.65 127.331 513.055 127.85 513.424 128.361C514.136 129.356 512.638 130.393 511.952 129.435C511.612 128.965 511.259 128.521 510.873 128.088ZM514.109 134.045C513.813 132.866 515.587 132.443 515.875 133.593C516.031 134.221 516.151 134.854 516.226 135.497C516.376 136.689 514.568 136.914 514.418 135.723C514.353 135.16 514.248 134.595 514.109 134.045ZM514.081 140.809C514.369 139.649 516.141 140.084 515.847 141.255C515.687 141.869 515.511 142.461 515.312 143.063C514.904 144.153 513.274 143.717 513.58 142.495C513.765 141.933 513.931 141.383 514.081 140.809ZM511.522 147.429C512.143 146.34 513.629 147.134 513.165 148.214L512.353 149.864C511.697 151.017 510.192 149.984 510.726 149.051L511.522 147.429ZM508.205 153.876C508.836 152.773 510.377 153.748 509.815 154.731C509.523 155.253 509.24 155.807 508.96 156.339C508.327 157.444 506.79 156.466 507.35 155.487L508.205 153.876ZM504.844 160.377C505.511 159.208 507.005 160.259 506.482 161.179C506.214 161.715 505.958 162.261 505.707 162.804C505.26 163.854 503.556 163.201 504.053 162.044C504.309 161.488 504.572 160.925 504.844 160.377ZM501.977 167.2C502.427 166.008 504.102 166.729 503.704 167.785C503.516 168.341 503.347 168.913 503.196 169.479C502.918 170.589 501.134 170.214 501.438 168.997C501.6 168.401 501.776 167.783 501.977 167.2ZM500.698 174.66C500.698 173.405 502.52 173.47 502.52 174.617C502.536 175.186 502.605 175.733 502.707 176.293C502.869 177.59 501.046 177.69 500.91 176.603C500.793 175.951 500.722 175.322 500.698 174.66ZM503.534 181.88C502.725 180.908 504.175 179.801 504.901 180.674C505.278 181.092 505.683 181.459 506.115 181.817C507.066 182.608 505.866 183.981 504.97 183.235C504.455 182.812 503.98 182.375 503.534 181.88ZM509.957 186.03C508.846 185.554 509.507 183.916 510.634 184.338C511.178 184.555 511.737 184.749 512.297 184.928C513.388 185.337 512.95 186.966 511.729 186.659C511.129 186.469 510.541 186.259 509.957 186.03ZM519.259 186.462C520.391 186.604 520.235 188.421 518.986 188.264L519.259 186.462ZM524.49 188.849C523.184 188.686 523.544 186.896 524.624 187.031L526.427 187.144C527.501 187.144 527.653 188.963 526.325 188.963L524.49 188.849ZM531.831 189.126C530.652 189.126 530.625 187.304 531.85 187.304L533.01 187.31C533.816 187.31 534.218 188.299 533.669 188.849C533.533 189.01 533.261 189.132 533.01 189.132L531.831 189.126Z" fill-rule="evenodd"  fill="#859AC6" >
</path>
<path d="M210.415 115.598C214.333 116.689 218.185 117.933 221.973 119.328C238.212 125.315 253.239 134.102 267.054 145.69C267.448 146.02 267.501 146.61 267.169 147.005C266.838 147.399 266.249 147.452 265.853 147.119C252.205 135.673 237.362 126.991 221.322 121.079C217.599 119.707 213.811 118.483 209.959 117.409L210.415 115.598L210.415 115.598Z" fill-rule="evenodd"  fill="#F6EAE0" >
</path>
<path d="M257.814 108.968C230.74 105.696 209.76 82.6442 209.76 54.6855C209.76 24.482 234.242 0 264.445 0C294.649 0 319.131 24.482 319.131 54.6855C319.131 81.7827 299.42 104.27 273.557 108.608L273.557 122.423L293.148 122.423L293.148 138.167L273.557 138.167L273.557 166.758L257.814 166.758L257.814 138.167L238.221 138.167L238.221 122.423L257.814 122.423L257.814 108.968ZM303.394 54.6855C303.394 76.1979 285.959 93.6342 264.445 93.6342C242.932 93.6342 225.497 76.1979 225.497 54.6855C225.497 33.1717 242.932 15.7365 264.445 15.7365C285.959 15.7365 303.394 33.1717 303.394 54.6855Z" fill-rule="evenodd"  fill="#223F81" >
</path>
<path d="M309.966 54.72C309.966 55.4944 309.338 56.1218 308.563 56.1218C307.789 56.1218 307.162 55.4944 307.162 54.72C307.162 50.9345 306.663 47.1848 305.696 43.5676C304.723 39.9445 303.279 36.4451 301.392 33.1757L301.392 33.1757C301.005 32.5087 301.234 31.6522 301.901 31.2651C302.57 30.8779 303.426 31.1069 303.813 31.7738C305.83 35.2651 307.367 38.9917 308.401 42.8449C309.435 46.7041 309.966 50.6973 309.966 54.72Z" fill-rule="evenodd"  fill="#FFFFFF" >
</path>
<path d="M225.024 77.2665C223.008 73.7742 221.469 70.0476 220.436 66.1942C219.403 62.336 218.871 58.3428 218.871 54.3203C218.871 53.547 219.499 52.9182 220.273 52.9182C221.047 52.9182 221.676 53.547 221.676 54.3203C221.676 58.1067 222.173 61.8564 223.142 65.4724C224.113 69.0956 225.556 72.5939 227.444 75.8644L227.444 75.8644C227.831 76.5314 227.603 77.3881 226.935 77.7753C226.268 78.1624 225.41 77.9335 225.024 77.2665Z" fill-rule="evenodd"  fill="#FFFFFF" >
</path>
<g opacity="0.81">
<path d="M238.529 6.51746C221.4 15.7536 209.759 33.859 209.759 54.6844C209.759 82.6452 230.741 105.696 257.813 108.968L257.813 121.611L259.267 121.611L259.267 121.611L259.267 108.155C232.194 104.883 211.214 81.8332 211.214 53.8735C211.214 33.636 222.206 15.9665 238.544 6.50928C238.54 6.51244 238.535 6.51535 238.529 6.51746Z" fill-rule="evenodd"  fill="#466FB5" >
</path>
</g>
<g opacity="0.81">
<path d="M295.158 78.6431C292.137 82.5094 288.403 85.7909 284.153 88.2878C288.262 86.1051 291.934 83.208 295.002 79.7612C297.619 76.8214 299.796 73.483 301.434 69.8468C303.629 64.9739 304.849 59.5654 304.849 53.8734C304.849 32.3597 287.413 14.9244 265.899 14.9244C258.715 14.9244 251.986 16.8678 246.208 20.2598C251.649 17.3715 257.856 15.7364 264.445 15.7364L264.445 15.7364C285.959 15.7364 303.394 33.1717 303.394 54.6844C303.394 60.4708 302.132 65.962 299.869 70.898C298.6 73.6697 297.015 76.2668 295.158 78.6431Z" fill-rule="evenodd"  fill="#466FB5" >
</path>
</g>
<g opacity="0.81">
<path d="M262.739 165.946L261.567 165.946L261.078 165.946L260.39 165.946L259.267 165.946L259.267 165.243L259.267 164.859L259.26 160.339L259.267 160.058L259.267 157.987L259.267 157.724L259.267 156.477L259.267 155.375L259.267 154.849L259.267 141.881L259.267 141.881L259.267 139.55L259.267 137.355L256.226 137.355L252.938 137.355L240.341 137.355L239.676 137.355L239.676 129.331L239.676 127.215L239.676 122.423L238.222 122.423L238.222 126.459L238.222 128.563L238.222 138.167L238.72 138.167L254.125 138.167L257.369 138.167L257.813 138.167L257.813 138.486L257.813 140.798L257.813 153.614L257.813 154.134L257.813 155.223L257.813 156.455L257.813 156.695L257.813 161.583L257.813 161.927L257.813 163.492L257.813 163.846L257.813 164.772L257.813 166.758L259.881 166.758L260.755 166.758L261.124 166.758L261.212 166.758L261.927 166.758L267.057 166.758L268.506 166.758L269.779 166.758L270.904 166.758L271.437 166.758L273.556 166.758L273.556 165.946L270.7 165.946L270.164 165.946L269.028 165.946L267.747 165.946L267.089 165.946L262.739 165.946Z" fill-rule="evenodd"  fill="#466FB5" >
</path>
</g>
</svg>
